<?xml version="1.0" encoding="UTF-8"?>
<svg version="1.1" xmlns="http://www.w3.org/2000/svg" width="512" height="512">
<path d="M0 0 C9.77125892 5.72248279 16.27889539 14.11145786 23.16308594 22.90136719 C24.82976264 25.02412437 26.50855816 27.13693698 28.1875 29.25 C28.70530029 29.9195874 29.22310059 30.5891748 29.7565918 31.27905273 C34.0055732 36.61605003 38.71970815 41.95378936 45.52880859 43.66894531 C55.23928617 44.51120405 65.54935361 39.28055302 74.4375 35.875 C102.97620694 25.02622111 102.97620694 25.02622111 115.1875 30.4375 C124.3668428 36.28073804 128.70659916 45.65603162 131.10049438 55.99014282 C132.13165256 61.17365984 132.91215097 66.39818321 133.6875 71.625 C135.13169339 87.31778264 135.13169339 87.31778264 142.31323242 100.57250977 C147.27070994 104.0324743 152.61846913 105.12774887 158.5 106.0625 C159.41330078 106.22371338 160.32660156 106.38492676 161.26757812 106.55102539 C165.68234111 107.32162028 170.10654787 108.01586919 174.5390625 108.67578125 C188.27824814 110.74444906 200.76509797 113.39813172 209.99609375 124.6015625 C214.14272164 131.11564229 213.77088921 139.5566254 212.625 146.9375 C210.90717708 154.12911179 208.25192213 161.0381932 205.625 167.9375 C204.63993847 170.53570175 203.65535266 173.13400296 202.67797852 175.73510742 C202.08040828 177.31432157 201.47109797 178.88916832 200.84741211 180.45825195 C198.44298642 186.70808076 196.3539455 193.3862282 198.875 199.875 C204.31823493 209.24328869 214.95777375 215.84519235 223.390625 222.4140625 C231.95204852 229.08999333 240.21002546 236.21159405 243.625 246.9375 C244.83174433 257.3409064 243.21251943 264.61029787 237.12109375 273.01171875 C231.86562367 279.45758446 225.17210384 284.37624264 218.66113281 289.47558594 C216.53837563 291.14226264 214.42556302 292.82105816 212.3125 294.5 C211.3081189 295.27670044 211.3081189 295.27670044 210.28344727 296.0690918 C204.94653836 300.31800283 199.84562456 305.19425136 197.6875 311.8125 C197.63069476 314.65276215 197.88898381 317.1907131 198.25 320 C198.66174634 323.46075408 198.72260252 324.70976079 197.3125 328 C195.11896519 330.51850293 194.14309744 330.87993362 190.8125 331.25 C186.62562013 330.83952158 185.34049446 330.18100727 182.625 326.9375 C179.82962393 318.68975674 179.59619368 308.9362181 183.125 300.875 C189.42792451 289.92781532 199.83799796 282.41297514 209.52392578 274.66650391 C212.42479934 272.27933373 215.20442002 269.76433884 217.97631836 267.22924805 C219.625 265.9375 219.625 265.9375 221.625 265.9375 C222.0271875 265.07125 222.0271875 265.07125 222.4375 264.1875 C223.625 261.9375 223.625 261.9375 225.25 260.1875 C227.28298122 256.86080346 227.42863039 253.66864111 226.625 249.9375 C225.17016832 247.6340165 223.52027338 245.92753705 221.625 243.9375 C221.625 243.2775 221.625 242.6175 221.625 241.9375 C220.75488281 241.54884766 220.75488281 241.54884766 219.8671875 241.15234375 C217.45036048 239.84287824 215.75541324 238.37666103 213.75 236.5 C209.81052746 232.91273196 205.71445832 229.62623315 201.5 226.375 C192.20549436 219.14251636 182.94625013 211.629877 180.85546875 199.375 C179.34705628 183.42162064 187.11634359 167.51875028 192.75854492 152.91113281 C194.59323453 148.15382155 195.79777913 144.03968813 196 138.9375 C196.04898437 138.091875 196.09796875 137.24625 196.1484375 136.375 C195.80815964 133.73716143 195.80815964 133.73716143 193.4921875 131.75 C184.76552246 126.23341611 173.00662373 125.45713691 163 123.9375 C136.0810715 119.81515871 136.0810715 119.81515871 126.375 108.375 C119.20689125 97.86471354 118.20156103 83.73319053 116.27050781 71.42871094 C114.53991665 57.58776402 114.53991665 57.58776402 107.625 45.9375 C96.86287202 43.43914886 84.45658146 50.10286547 74.625 53.82421875 C47.48147453 64.09279407 47.48147453 64.09279407 34.5625 58.4375 C23.61531532 52.13457549 16.10047514 41.72450204 8.35400391 32.03857422 C5.96683373 29.13770066 3.45183884 26.35807998 0.91674805 23.58618164 C-0.375 21.9375 -0.375 21.9375 -0.375 19.9375 C-0.9525 19.669375 -1.53 19.40125 -2.125 19.125 C-4.375 17.9375 -4.375 17.9375 -6.125 16.3125 C-9.45169654 14.27951878 -12.64385889 14.13386961 -16.375 14.9375 C-18.6784835 16.39233168 -20.38496295 18.04222662 -22.375 19.9375 C-23.035 19.9375 -23.695 19.9375 -24.375 19.9375 C-24.76365234 20.80761719 -24.76365234 20.80761719 -25.16015625 21.6953125 C-26.46962176 24.11213952 -27.93583897 25.80708676 -29.8125 27.8125 C-33.3998018 31.75200962 -36.68590284 35.84829193 -39.9375 40.0625 C-47.50677658 49.7749238 -55.0879855 58.47941177 -67.87719727 60.67822266 C-76.12689837 61.53455953 -83.86275058 59.49619264 -91.5625 56.75 C-92.91009399 56.2856958 -92.91009399 56.2856958 -94.28491211 55.81201172 C-100.69632418 53.58526653 -107.06993776 51.24968337 -113.40112305 48.80395508 C-118.15859405 46.96944978 -122.2727038 45.76472515 -127.375 45.5625 C-128.220625 45.51351562 -129.06625 45.46453125 -129.9375 45.4140625 C-132.56895743 45.75596616 -132.56895743 45.75596616 -134.5625 48.03515625 C-136.59792817 51.29447334 -137.48336773 54.01230937 -138.375 57.75 C-138.61863281 58.76477417 -138.61863281 58.76477417 -138.8671875 59.80004883 C-140.33713322 66.19077917 -141.34510361 72.65172443 -142.375 79.125 C-146.62652107 105.59102735 -146.62652107 105.59102735 -157.9375 115.1875 C-168.33883342 122.30175941 -182.15181471 123.21963445 -194.29101562 125.00390625 C-208.63904119 126.62628077 -208.63904119 126.62628077 -220.375 133.9375 C-223.216142 144.35502066 -216.09983333 157.39600641 -212.48828125 166.9375 C-202.21970593 194.08102547 -202.21970593 194.08102547 -207.875 207 C-214.17792451 217.94718468 -224.58799796 225.46202486 -234.27392578 233.20849609 C-237.17479934 235.59566627 -239.95442002 238.11066116 -242.72631836 240.64575195 C-244.375 241.9375 -244.375 241.9375 -246.375 241.9375 C-246.643125 242.515 -246.91125 243.0925 -247.1875 243.6875 C-248.375 245.9375 -248.375 245.9375 -250 247.6875 C-252.03298122 251.01419654 -252.17863039 254.20635889 -251.375 257.9375 C-249.92016832 260.2409835 -248.27027338 261.94746295 -246.375 263.9375 C-246.375 264.5975 -246.375 265.2575 -246.375 265.9375 C-245.80136719 266.19144531 -245.22773438 266.44539063 -244.63671875 266.70703125 C-242.11449376 268.07922619 -240.29186271 269.67396062 -238.1875 271.625 C-235.18998669 274.34823105 -232.16341703 276.92696367 -228.9375 279.375 C-208.50394786 295.09311703 -208.50394786 295.09311703 -205.85546875 307.33984375 C-204.30222883 320.7805465 -209.28303587 333.22934962 -214 345.5625 C-214.75666002 347.56624784 -215.51051818 349.57101563 -216.26254272 351.57650757 C-216.93654807 353.37008139 -217.61770867 355.16096165 -218.29931641 356.95166016 C-219.76612614 361.02317241 -220.57851348 364.6107632 -220.75 368.9375 C-220.79898438 369.783125 -220.84796875 370.62875 -220.8984375 371.5 C-220.55708078 374.13520056 -220.55708078 374.13520056 -218.2578125 376.12890625 C-215.08640544 378.11855594 -212.51498332 379.00124294 -208.875 379.875 C-207.88282471 380.11476563 -207.88282471 380.11476563 -206.87060547 380.359375 C-198.25537464 382.34328225 -189.49039998 383.67247455 -180.75585938 385.01147461 C-168.0589277 387.05205291 -157.75053001 390.3012591 -149.84375 401.01171875 C-144.26559773 410.75647866 -143.16427637 423.0523132 -141.37890625 433.96484375 C-141.21076416 434.97909424 -141.04262207 435.99334473 -140.86938477 437.03833008 C-140.54853658 439.00097034 -140.23970383 440.96562692 -139.94506836 442.93237305 C-138.85349607 449.70874364 -137.37933035 456.93316965 -132.375 461.9375 C-121.61287202 464.43585114 -109.20658146 457.77213453 -99.375 454.05078125 C-72.23147453 443.78220593 -72.23147453 443.78220593 -59.3125 449.4375 C-48.36531532 455.74042451 -40.85047514 466.15049796 -33.10400391 475.83642578 C-30.71683373 478.73729934 -28.20183884 481.51692002 -25.66674805 484.28881836 C-24.375 485.9375 -24.375 485.9375 -24.375 487.9375 C-23.7975 488.205625 -23.22 488.47375 -22.625 488.75 C-20.375 489.9375 -20.375 489.9375 -18.625 491.5625 C-15.29830346 493.59548122 -12.10614111 493.74113039 -8.375 492.9375 C-6.0715165 491.48266832 -4.36503705 489.83277338 -2.375 487.9375 C-1.715 487.9375 -1.055 487.9375 -0.375 487.9375 C0.01365234 487.06738281 0.01365234 487.06738281 0.41015625 486.1796875 C1.71962176 483.76286048 3.18583897 482.06791324 5.0625 480.0625 C8.64976804 476.12302746 11.93626685 472.02695832 15.1875 467.8125 C22.41998364 458.51799436 29.932623 449.25875013 42.1875 447.16796875 C58.14087936 445.65955628 74.04374972 453.42884359 88.65136719 459.07104492 C93.40867845 460.90573453 97.52281187 462.11027913 102.625 462.3125 C103.470625 462.36148437 104.31625 462.41046875 105.1875 462.4609375 C107.81895743 462.11903384 107.81895743 462.11903384 109.8125 459.83984375 C111.84792817 456.58052666 112.73336773 453.86269063 113.625 450.125 C113.86863281 449.11022583 113.86863281 449.11022583 114.1171875 448.07495117 C115.58713322 441.68422083 116.59510361 435.22327557 117.625 428.75 C121.87652107 402.28397265 121.87652107 402.28397265 133.1875 392.6875 C143.69778646 385.51939125 157.82930947 384.51406103 170.13378906 382.58300781 C183.97473598 380.85241665 183.97473598 380.85241665 195.625 373.9375 C195.90647193 371.63436893 195.90647193 371.63436893 195.8125 369.0625 C195.80605469 368.19882812 195.79960937 367.33515625 195.79296875 366.4453125 C195.63797079 364.13115687 195.21688405 362.16949024 194.625 359.9375 C194.25010219 357.19539031 194.13231067 354.66968628 194.625 351.9375 C197.20667954 348.90022995 198.74998993 348.06250144 202.6875 347.5 C206.00248504 347.99372118 207.16552689 348.72247756 209.625 350.9375 C213.97599171 358.90890646 214.11890857 370.78334833 212.00390625 379.49609375 C208.74961639 386.91587462 202.27202999 391.5195876 194.9453125 394.453125 C186.80146927 397.48585085 178.50317748 398.72936244 169.9375 400 C154.25583012 401.45125698 154.25583012 401.45125698 140.98779297 408.61254883 C137.42869766 413.67879248 136.45137439 419.16505394 135.5625 425.1875 C135.23967531 427.13564819 134.91542384 429.08356041 134.58984375 431.03125 C134.43112793 432.01222656 134.27241211 432.99320312 134.10888672 434.00390625 C128.71609046 466.69807371 128.71609046 466.69807371 117.625 475.9375 C107.64561309 481.09763057 97.34350991 480.08211822 86.96630859 476.78125 C82.48605428 475.25128643 78.04924689 473.6220391 73.625 471.9375 C71.02679825 470.95243847 68.42849704 469.96785266 65.82739258 468.99047852 C64.24817843 468.39290828 62.67333168 467.78359797 61.10424805 467.15991211 C54.85441924 464.75548642 48.1762718 462.6664455 41.6875 465.1875 C30.70066858 471.57115304 22.57634086 485.08739801 14.984375 495.1015625 C9.27110915 502.2923971 0.7375502 509.22847403 -8.57421875 510.30859375 C-19.84438524 510.52314339 -27.17103048 507.64206428 -35.3984375 499.98828125 C-39.92858021 495.28803437 -43.89236171 490.10739562 -47.91308594 484.97363281 C-49.57976264 482.85087563 -51.25855816 480.73806302 -52.9375 478.625 C-53.45530029 477.9554126 -53.97310059 477.2858252 -54.5065918 476.59594727 C-58.7555732 471.25894997 -63.46970815 465.92121064 -70.27880859 464.20605469 C-79.98928617 463.36379595 -90.29935361 468.59444698 -99.1875 472 C-127.72620694 482.84877889 -127.72620694 482.84877889 -139.9375 477.4375 C-149.1168428 471.59426196 -153.45659916 462.21896838 -155.85049438 451.88485718 C-156.88165256 446.70134016 -157.66215097 441.47681679 -158.4375 436.25 C-159.88169339 420.55721736 -159.88169339 420.55721736 -167.06323242 407.30249023 C-172.02070994 403.8425257 -177.36846913 402.74725113 -183.25 401.8125 C-184.16330078 401.65128662 -185.07660156 401.49007324 -186.01757812 401.32397461 C-190.43234111 400.55337972 -194.85654787 399.85913081 -199.2890625 399.19921875 C-212.36410345 397.23171547 -225.63092317 394.87705933 -234.375 383.9375 C-239.55315493 373.86622619 -238.4963211 363.5813499 -235.16821289 353.12719727 C-232.89813872 346.47752772 -230.37716323 339.93034696 -227.8359375 333.38085938 C-222.50819822 320.84717435 -222.50819822 320.84717435 -223.5625 307.8125 C-229.27180542 298.61312084 -239.69915583 292.03652068 -248.140625 285.4609375 C-256.70204852 278.78500667 -264.96002546 271.66340595 -268.375 260.9375 C-269.58174433 250.5340936 -267.96251943 243.26470213 -261.87109375 234.86328125 C-256.61562367 228.41741554 -249.92210384 223.49875736 -243.41113281 218.39941406 C-241.28837563 216.73273736 -239.17556302 215.05394184 -237.0625 213.375 C-236.3929126 212.85719971 -235.7233252 212.33939941 -235.03344727 211.8059082 C-229.54253593 207.43439013 -224.53535635 202.68271522 -222.4140625 195.8359375 C-222.2621269 184.56231588 -228.22101482 172.6375466 -232.20068359 162.32666016 C-236.41669895 151.39936368 -240.97713965 137.88867797 -235.875 126.375 C-230.03176196 117.1956572 -220.65646838 112.85590084 -210.32235718 110.46200562 C-205.13884016 109.43084744 -199.91431679 108.65034903 -194.6875 107.875 C-178.99471736 106.43080661 -178.99471736 106.43080661 -165.73999023 99.24926758 C-162.2800257 94.29179006 -161.18475113 88.94403087 -160.25 83.0625 C-160.08878662 82.14919922 -159.92757324 81.23589844 -159.76147461 80.29492188 C-158.99087972 75.88015889 -158.29663081 71.45595213 -157.63671875 67.0234375 C-155.56805094 53.28425186 -152.91436828 40.79740203 -141.7109375 31.56640625 C-135.19685771 27.41977836 -126.7558746 27.79161079 -119.375 28.9375 C-112.18338821 30.65532292 -105.2743068 33.31057787 -98.375 35.9375 C-95.77679825 36.92256153 -93.17849704 37.90714734 -90.57739258 38.88452148 C-88.99817843 39.48209172 -87.42333168 40.09140203 -85.85424805 40.71508789 C-79.60441924 43.11951358 -72.9262718 45.2085545 -66.4375 42.6875 C-57.06921131 37.24426507 -50.46730765 26.60472625 -43.8984375 18.171875 C-33.18914399 4.4379404 -18.53771474 -8.73715547 0 0 Z " fill="#000000" transform="translate(268.375,2.0625)"/>
<path d="M0 0 C30.66533992 29.11812261 48.09234566 68.89662196 49.30786133 111.16308594 C49.66713631 157.0814869 32.32693684 197.59176697 0.30786133 230.16308594 C-29.2896342 259.85746361 -70.79332954 274.05816786 -112.15698242 274.22949219 C-148.97477645 273.69801916 -184.74320979 260.07958229 -212.69213867 236.16308594 C-213.50038086 235.47730469 -214.30862305 234.79152344 -215.14135742 234.08496094 C-247.64124104 205.71771558 -265.00039704 166.92530785 -268.39526367 124.31933594 C-270.49187914 92.52914217 -262.5313375 59.28202824 -245.69213867 32.16308594 C-242.02119957 29.7157932 -238.95736945 29.34087278 -234.69213867 30.16308594 C-232.12963867 32.22558594 -232.12963867 32.22558594 -230.69213867 35.16308594 C-231.00227063 40.62008871 -232.73589989 44.69985938 -235.31713867 49.41308594 C-252.78158398 83.06572863 -256.49767846 121.92632611 -245.05151367 158.19287109 C-233.49756309 192.94708727 -210.618968 221.16587085 -178.69213867 239.16308594 C-177.64026367 239.75734375 -176.58838867 240.35160156 -175.50463867 240.96386719 C-156.70326626 250.963182 -135.9113651 256.16746241 -114.69213867 257.16308594 C-113.55905273 257.22496094 -113.55905273 257.22496094 -112.40307617 257.28808594 C-73.77543183 258.3500143 -37.59275131 242.13983581 -9.69213867 216.16308594 C17.79524441 189.03579958 31.94464578 152.10453939 32.33520508 113.82275391 C32.01596592 82.77104498 21.45158668 52.56514324 2.30786133 28.16308594 C1.87070801 27.60492188 1.43355469 27.04675781 0.9831543 26.47167969 C-23.12540234 -3.92184984 -57.74141189 -21.7417593 -96.05932617 -26.23144531 C-98.93837453 -26.50616367 -101.80348581 -26.7013761 -104.69213867 -26.83691406 C-105.4475293 -26.87816406 -106.20291992 -26.91941406 -106.98120117 -26.96191406 C-140.90799185 -27.89460934 -177.35480534 -15.59470837 -202.29370117 7.65625 C-202.82737305 8.16639648 -203.36104492 8.67654297 -203.91088867 9.20214844 C-204.44085449 9.70625244 -204.97082031 10.21035645 -205.5168457 10.72973633 C-206.97638523 12.13801959 -208.40946244 13.5735815 -209.84057617 15.01074219 C-213.22375913 17.56435015 -215.49812711 17.97403204 -219.69213867 18.16308594 C-222.34029878 17.37579509 -223.32098397 16.64028484 -225.00463867 14.47558594 C-226.10493741 10.77458108 -225.85596162 8.89957013 -224.69213867 5.16308594 C-204.26714096 -21.44978054 -165.18052565 -37.67170617 -133.00268555 -42.21679688 C-83.72604298 -48.32902892 -36.43519854 -33.88715853 0 0 Z " fill="#000000" transform="translate(365.692138671875,140.8369140625)"/>
<path d="M0 0 C5.35193876 3.73590041 7.27762203 7.86451361 8.69921875 14.16015625 C9.21895124 17.70113741 9.3252474 19.210135 8.01171875 22.59765625 C6.19921875 24.53515625 6.19921875 24.53515625 3.19921875 26.53515625 C-0.1166675 26.35751949 -2.75562886 26.18387152 -5.61328125 24.41015625 C-7.35778668 21.655674 -7.94749019 18.66389012 -8.80078125 15.53515625 C-9.46078125 14.87515625 -10.12078125 14.21515625 -10.80078125 13.53515625 C-13.90004944 13.85714591 -13.90004944 13.85714591 -16.80078125 14.53515625 C-17.03861328 15.45748047 -17.03861328 15.45748047 -17.28125 16.3984375 C-19.16927924 22.93873769 -19.16927924 22.93873769 -22.05078125 25.66015625 C-25.73285039 26.8317237 -28.09218108 26.56532297 -31.80078125 25.53515625 C-33.73828125 23.97265625 -33.73828125 23.97265625 -34.80078125 21.53515625 C-35.50563915 14.36910098 -33.91177338 9.03062251 -29.42578125 3.28515625 C-21.24527495 -5.28489796 -10.06668511 -5.67337512 0 0 Z " fill="#000000" transform="translate(330.80078125,220.46484375)"/>
<path d="M0 0 C5.98474765 3.33764773 10.43939649 7.03909075 12.9375 13.625 C13.56475625 18.01579372 13.98864928 22.11795166 12.1875 26.25 C9.26717965 28.60509706 6.95537805 28.74861417 3.25 28.8125 C0.5 27.9375 0.5 27.9375 -1.75 25.8125 C-3.04175727 22.88140418 -3.95100058 19.91105871 -4.75 16.8125 C-6.73 16.4825 -8.71 16.1525 -10.75 15.8125 C-12.74017497 18.16452497 -13.7753795 19.89540638 -14.6875 22.875 C-15.75 25.8125 -15.75 25.8125 -17.4375 27.75 C-20.85494133 29.32017574 -23.16651825 28.72465899 -26.75 27.8125 C-29.25702514 26.22471741 -29.66539809 25.06026275 -30.625 22.25 C-30.83984061 16.34188332 -29.04104663 11.13638394 -26.1875 6 C-18.41578968 -0.97461183 -9.95076085 -3.15107427 0 0 Z " fill="#000000" transform="translate(202.75,218.1875)"/>
<path d="M0 0 C2.03697617 1.62126675 4.03814584 3.28859531 6 5 C9.32033136 6.01642797 11.21650164 6.21020688 14.5625 5.3125 C17.12380547 4.05584252 17.12380547 4.05584252 19.375 1.875 C22.83846271 -0.59890194 24.82955655 -0.60660996 29 0 C31.96413207 2.02809037 32.82327105 3.49190426 34 6.875 C34 11.190195 32.82752064 12.75869585 30 16 C23.43786651 21.36498752 16.34454499 23.38997978 7.9375 22.875 C0.95159894 21.95294784 -4.87699444 18.82165229 -10 14 C-11.89718213 11.41293346 -12.01011003 10.24264083 -11.875 7 C-9.98632159 0.52453116 -6.54804115 -1.01607535 0 0 Z " fill="#000000" transform="translate(245,247)"/>
</svg>
